<?xml version="1.0" encoding="UTF-8"?>
<svg id="Capa_10" data-name="Capa 10" xmlns="http://www.w3.org/2000/svg" viewBox="0 0 2139.96 2454.6">
  <defs>
    <style>
      .cls-1 {
        fill: none;
      }

      .cls-1, .cls-2, .cls-3, .cls-4 {
        stroke: #1d1d1b;
        stroke-miterlimit: 10;
        stroke-width: 40px;
      }

      .cls-2 {
        fill: #1d1d1b;
      }

      .cls-3 {
        fill: #d8102d;
      }

      .cls-4, .cls-5 {
        fill: #fff;
      }

      .cls-5 {
        stroke-width: 0px;
      }
    </style>
  </defs>
  <path class="cls-3" d="M217.32,1072.09c-10.55-49.93,4.34-99.78,14.24-132.92,58.52-195.87,257.78-282.4,318.07-308.57,205.15-89.08,392.27-44.9,436.75-33.23,40,10.5,249.38,69.44,379.78,265.85,24.51,36.92,76.1,116.55,90.2,232.62,3.1,25.55,15.89,130.83-14.24,189.89-123.68,242.38-1158.49,100.17-1224.79-213.63Z"/>
  <path class="cls-4" d="M321.76,1917.1c-36.36-27.72-94.48-72.03-166.15-56.97-46.25,9.72-88.96,42.23-109.19,85.45-45.41,97.02,42.73,204.67,61.71,227.87,25.6,31.27,87.12,106.42,185.14,104.44,57.83-1.17,133.44-29.29,161.41-90.2,46.79-101.92-72.47-224.51-132.92-270.59Z"/>
  <path class="cls-4" d="M1185.76,2135.47c32.88,22.58,86.9,36.01,128.18,9.49,52.91-33.99,55.48-114.76,28.48-166.15-17.47-33.26-58.81-76.12-113.93-71.21-60.29,5.37-88.85,63.6-90.2,66.46-26.35,56.04-2.51,127.09,47.47,161.41Z"/>
  <path class="cls-3" d="M1204.75,1693.98c58.88,46.74,149.52,38.56,208.88,14.24,112.57-46.11,142.43-162.44,151.91-199.38,10.62-41.36,38.8-151.16-28.48-227.87-63.47-72.37-180.46-79.43-256.35-42.73-156.16,75.53-192.98,362.84-75.96,455.74Z"/>
  <path class="cls-3" d="M326.51,986.64c-46.31-34.79-111.3-34.27-156.66-18.99-124.94,42.08-160.67,216.25-147.16,327.56,5.47,45.1,15.05,124.09,80.7,166.15,61.96,39.7,152.89,33.08,204.13-14.24,21.74-20.08,34.68-45.95,47.47-104.44,26.82-122.68,62.85-287.44-28.48-356.04Z"/>
  <path class="cls-4" d="M1120.97,1788.59c53.87,115.98,32.62,268.51-44.45,377.81-87.42,123.97-219.46,153.79-266.69,164.46-135.25,30.54-359.13,20.49-475.6-142.23-85.68-119.72-67.83-258.65-62.23-293.36,3.63-22.48,25.13-143.76,115.57-226.69,189.19-173.49,620.02-124.07,733.4,120.01Z"/>
  <path class="cls-4" d="M836.5,2406.42c56.46,39.92,124.18,27.26,151.12,22.22,93.3-17.44,188.42-91.33,213.35-200.02,5.11-22.28,30.06-145.34-53.34-217.8-94.51-82.12-233.17-16.7-240.02-13.33-114.79,56.33-135.5,180.26-137.79,195.57-3.15,21.06-20.07,152.02,66.67,213.35Z"/>
  <path class="cls-4" d="M340.75,1656c-94.11,13.76-183.27,200.89-132.92,346.55,3.98,11.52,38.92,107.66,137.67,151.91,13.06,5.85,117.83,52.8,189.89,0,35.63-26.11,47.67-65.18,52.22-80.7,48-163.63-123.89-435.74-246.86-417.76Z"/>
  <path class="cls-4" d="M1378.77,1041.86c-105.65-244.61-363.98-347.81-568.94-351.14-19.86-.32-391.65-.06-564.49,306.69-14.95,26.54-145.09,266.71-31.11,515.6,146.04,318.89,544.72,328.68,573.38,328.92,41.07.34,399.6-2.73,564.49-297.8,10.2-18.25,135.19-251.01,26.67-502.27Z"/>
  <path class="cls-4" d="M1116.53,1801.93c-2.45,14.41-40.56,218.99-217.8,288.91-27.17,10.72-156.39,57.25-266.69-13.33-62.69-40.12-88.69-98.5-102.23-128.9-14.85-33.34-81.79-183.67,4.44-284.47,45.97-53.73,131.01-88.19,208.91-62.23,93.06,31.01,154.19,141.02,128.9,257.8"/>
  <path class="cls-4" d="M1024.35,829.98c9.61-35.33,24.65-84.89,47.47-142.42,44.95-113.29,130.38-328.6,327.56-465.23,33.37-23.13,242.24-167.86,341.8-94.95,93.5,68.47,33.53,287.12,23.74,322.81-85.05,310.06-384.56,477.62-517.45,541.19"/>
  <path class="cls-4" d="M649.32,445.45c-4.13,5.43-8.76,11.32-13.91,17.56-36.73,44.54-99.82,107.13-194.97,148.59-55.38,24.13-212.91,92.78-308.57,18.99-96.68-74.58-76.94-253.6-28.48-360.79C174.12,113.32,361.57-12.96,549.63,27.69c201.8,43.63,278.84,252.37,294.33,294.33,85.73,232.29-18.62,459.33-52.22,469.98l-278.87,88.39-72.43-268.79"/>
  <path class="cls-5" d="M878.25,870.98c8.74,68.89-155.58,106.28-162.42,107.77-62.7,13.71-193.07,24.57-230.12-28.45-38.32-54.83,25.29-174.92,135.7-196.3,108.82-21.07,249.15,56.45,256.83,116.98Z"/>
  <path class="cls-1" d="M249.03,1211.75c-.23-4.62,64.75-8.51,134.18,3.79,117.97,20.89,194.89,78.97,189.52,82.08-3.76,2.18-46.41-23.45-136.15-48.29-106.31-29.43-187.28-32.44-187.54-37.58Z"/>
  <path class="cls-1" d="M852.08,1358.96c-.23-4.62,64.75-8.51,134.18,3.79,117.97,20.89,194.89,78.97,189.52,82.08-3.76,2.18-46.41-23.45-136.15-48.29-106.31-29.43-187.28-32.44-187.54-37.58Z"/>
  <path class="cls-2" d="M558.67,1303.98c14.5,25.17,14.9,49.84,15.26,72.51.22,13.4,1.67,103.95-45.79,122.11-27.78,10.63-58.5-8.81-68.69-15.26-44.1-27.92-56.1-78.38-61.06-99.22-15.69-66,0-137.38,0-137.38h0s124.34-5.13,160.28,57.24Z"/>
  <path class="cls-2" d="M1161.72,1451.19c14.5,25.17,14.9,49.84,15.26,72.51.22,13.4,1.67,103.95-45.79,122.11-27.78,10.63-58.5-8.81-68.69-15.26-44.1-27.92-56.1-78.38-61.06-99.22-15.69-66,0-137.38,0-137.38h0s124.34-5.13,160.28,57.24Z"/>
  <path class="cls-2" d="M493.79,1605.45c10.18,3.82,20.35,7.63,30.53,11.45"/>
</svg>