<svg width="1280" height="720" xmlns="http://www.w3.org/2000/svg" xmlns:xlink="http://www.w3.org/1999/xlink" overflow="hidden"><g><rect x="0" y="0" width="1280" height="720" fill="#FFFFFF"/><path d="M0 315.848C57.1511 218.042 114.302 120.237 161.041 136.893 207.78 153.549 235.083 403.389 280.434 415.785 325.785 428.18 397.513 223.272 433.145 211.264 468.778 199.256 469.241 360.006 494.23 343.737 519.219 327.469 548.836 90.0232 583.08 113.652 617.325 137.28 671.931 457.618 699.696 485.508 727.462 513.397 728.85 298.417 749.675 280.987 770.499 263.556 807.983 377.824 824.642 380.923 841.302 384.022 841.764 301.129 849.631 299.58 857.498 298.03 857.961 394.48 871.844 371.627 885.727 348.773 912.104 151.225 932.928 162.458 953.753 173.691 971.338 416.172 996.79 439.026 1022.24 461.879 1056.95 300.354 1085.64 299.58 1114.33 298.805 1147.19 437.476 1168.94 434.377 1190.69 431.279 1197.63 292.995 1216.14 280.987 1234.65 268.979 1257.32 315.655 1280 362.33" stroke="#EF233C" stroke-width="8" stroke-miterlimit="8" fill="none" fill-rule="evenodd"/></g></svg>